<svg width="156" height="44" viewBox="0 0 156 44" fill="none" xmlns="http://www.w3.org/2000/svg">
<g clip-path="url(#clip0_70_3)">
<path opacity="0.3" d="M21.84 44C33.9019 44 43.68 34.1503 43.68 22C43.68 9.84974 33.9019 0 21.84 0C9.7781 0 0 9.84974 0 22C0 34.1503 9.7781 44 21.84 44Z" fill="white"/>
<path d="M30.5023 9.42859H12.5503C10.8199 9.42859 9.35999 10.8674 9.35999 12.6935V30.6783C9.35999 32.4491 10.7659 33.8879 12.5503 33.8879H30.5023C32.2326 33.8879 33.6385 32.4491 33.6385 30.6783V12.6382C33.6385 10.8674 32.2326 9.42859 30.5023 9.42859ZM21.5263 23.7611C17.0923 23.7611 13.4154 20.2748 13.0369 15.7371C12.9828 14.741 13.6858 13.9109 14.605 13.8556C15.5242 13.8003 16.3894 14.5197 16.4435 15.4604C16.6598 18.2826 19.0389 20.4408 21.8507 20.2194C24.338 20.0534 26.3387 18.0059 26.5009 15.4604C26.555 14.4643 27.3661 13.7449 28.3394 13.8003C28.826 13.8556 29.2586 14.077 29.583 14.409C29.9075 14.741 30.0156 15.2391 30.0156 15.6818C29.6371 20.2748 25.9602 23.7611 21.5263 23.7611Z" fill="white"/>
<path d="M69.4314 10.8396V31.9945C69.4854 32.3761 69.2154 32.7032 68.8374 32.7578C68.7834 32.7578 68.7294 32.7578 68.6754 32.7578H66.0835C65.7055 32.8123 65.3815 32.5397 65.3275 32.158C65.3275 32.1035 65.3275 32.049 65.3275 31.9945V30.8495C64.1936 32.3216 62.4656 33.194 60.0897 33.194C55.7699 33.194 52.26 29.4864 52.26 24.6339C52.26 19.7813 55.8239 16.0738 60.0897 16.0738C62.4116 16.0738 64.1396 16.9461 65.3275 18.4182V10.785C65.2735 10.4034 65.5435 10.0762 65.9215 10.0217C65.9755 10.0217 66.0295 10.0217 66.0835 10.0217H68.6754C69.0534 9.96719 69.3774 10.2398 69.4314 10.6215C69.4854 10.7305 69.4854 10.785 69.4314 10.8396ZM65.3275 24.6884C65.3275 22.1803 63.3296 20.2175 60.8997 20.2175C58.4158 20.2175 56.4718 22.2348 56.4718 24.6884C56.4718 27.1964 58.4698 29.1593 60.8997 29.1593C63.3296 29.1593 65.3275 27.1964 65.3275 24.6884Z" fill="white"/>
<path d="M84.4967 16.3082C84.8747 16.2537 85.1987 16.5263 85.2527 16.908C85.2527 16.9625 85.2527 17.017 85.2527 17.0715V31.7382C85.3067 32.1199 85.0367 32.447 84.6587 32.5015C84.6047 32.5015 84.5507 32.5015 84.4967 32.5015H81.8508C81.4729 32.556 81.1489 32.2834 81.0949 31.9018C81.0949 31.8472 81.0949 31.7927 81.0949 31.7382V30.8113C80.1769 32.1744 78.719 32.9377 76.7211 32.9377C73.7512 32.9377 71.4833 30.6477 71.4833 26.6676V17.0715C71.4293 16.6899 71.6993 16.3627 72.0772 16.3082C72.1312 16.3082 72.1852 16.3082 72.2392 16.3082H74.8851C75.2631 16.2537 75.5871 16.5263 75.6411 16.908C75.6411 16.9625 75.6411 17.017 75.6411 17.0715V26.3404C75.6411 28.1942 76.7211 29.0666 78.179 29.0666C79.7989 29.0666 81.0949 28.1397 81.0949 25.6862V17.0715C81.0409 16.6899 81.3109 16.3627 81.6889 16.3082C81.7428 16.3082 81.7968 16.3082 81.8508 16.3082H84.4967Z" fill="white"/>
<path d="M101.128 32.8123H98.1042C97.7263 32.8123 97.4023 32.6488 97.1863 32.3216L91.8945 25.4517V31.9945C91.9485 32.3762 91.6785 32.7033 91.3005 32.7578C91.2465 32.7578 91.1925 32.7578 91.1385 32.7578H88.4926C88.1146 32.8123 87.7906 32.5397 87.7366 32.1581C87.7366 32.1035 87.7366 32.049 87.7366 31.9945V10.8396C87.6826 10.4579 87.9526 10.1308 88.3306 10.0763C88.3846 10.0763 88.4386 10.0763 88.4926 10.0763H91.1385C91.5165 10.0218 91.8405 10.2944 91.8945 10.676C91.8945 10.7306 91.8945 10.7851 91.8945 10.8396V23.707L96.8623 17.0552C97.0783 16.7281 97.4023 16.5645 97.7803 16.5645H100.858C101.506 16.5645 101.722 17.0007 101.344 17.4914L95.9443 24.5794L101.668 31.8309C101.992 32.3762 101.776 32.8123 101.128 32.8123Z" fill="white"/>
<path d="M109.66 16.1283C113.224 16.1283 116.194 18.2547 116.194 22.5075V32.049C116.248 32.4306 115.978 32.7578 115.6 32.8123C115.546 32.8123 115.492 32.8123 115.438 32.8123H112.9C112.522 32.8668 112.198 32.5942 112.144 32.2125C112.144 32.158 112.144 32.1035 112.144 32.049V31.3947C111.226 32.5397 109.822 33.2485 107.77 33.2485C104.908 33.2485 102.37 31.5583 102.37 28.1779C102.37 24.7974 104.908 23.0527 107.77 23.0527C109.336 22.9437 110.902 23.4889 112.144 24.4703V22.7256C112.144 20.8173 111.172 19.9994 109.66 19.9994C108.472 19.9994 107.554 20.4901 107.284 21.3625C107.122 21.7987 106.96 22.0713 106.474 22.0713H103.936C103.558 22.1258 103.234 21.8532 103.18 21.4715C103.18 21.417 103.18 21.308 103.18 21.2534C103.558 17.9821 106.366 16.1283 109.66 16.1283ZM112.144 28.1233C112.144 26.8693 111.01 26.106 109.228 26.106C107.446 26.106 106.528 26.9783 106.528 28.1233C106.528 29.2683 107.392 30.1407 109.228 30.1407C111.064 30.1407 112.144 29.3228 112.144 28.1233Z" fill="white"/>
<path d="M125.373 16.1283C128.937 16.1283 131.907 18.2547 131.907 22.5075V32.049C131.961 32.4306 131.691 32.7578 131.313 32.8123C131.259 32.8123 131.205 32.8123 131.151 32.8123H128.613C128.235 32.8668 127.911 32.5942 127.857 32.2125C127.857 32.158 127.857 32.1035 127.857 32.049V31.3947C126.939 32.5397 125.535 33.2485 123.483 33.2485C120.621 33.2485 118.083 31.5583 118.083 28.1779C118.083 24.7974 120.621 23.0527 123.483 23.0527C125.049 22.9437 126.615 23.4889 127.857 24.4703V22.7256C127.857 20.8173 126.885 19.9994 125.373 19.9994C124.185 19.9994 123.267 20.4901 122.997 21.3625C122.835 21.7987 122.673 22.0713 122.187 22.0713H119.595C119.217 22.1258 118.893 21.8532 118.839 21.4715C118.839 21.417 118.839 21.308 118.839 21.2534C119.271 17.9821 122.079 16.1283 125.373 16.1283ZM127.857 28.1233C127.857 26.8693 126.723 26.106 124.941 26.106C123.159 26.106 122.241 26.9783 122.241 28.1233C122.241 29.2683 123.105 30.1407 124.941 30.1407C126.777 30.1407 127.857 29.3228 127.857 28.1233Z" fill="white"/>
<path d="M142.544 16.1283C145.514 16.1283 147.782 18.4728 147.782 22.3984V31.9945C147.836 32.3761 147.566 32.7033 147.188 32.7578C147.134 32.7578 147.08 32.7578 147.026 32.7578H144.38C144.002 32.8123 143.678 32.5397 143.624 32.158C143.624 32.1035 143.624 32.049 143.624 31.9945V22.7256C143.624 20.8718 142.544 19.9994 141.087 19.9994C139.467 19.9994 138.171 20.9263 138.171 23.3798V31.9945C138.225 32.3761 137.955 32.7033 137.577 32.7578C137.523 32.7578 137.469 32.7578 137.415 32.7578H134.769C134.391 32.8123 134.067 32.5397 134.013 32.158C134.013 32.1035 134.013 32.049 134.013 31.9945V17.3278C133.959 16.9461 134.229 16.619 134.607 16.5645C134.661 16.5645 134.715 16.5645 134.769 16.5645H137.415C137.793 16.51 138.117 16.7826 138.171 17.1642C138.171 17.2188 138.171 17.2733 138.171 17.3278V18.2002C139.035 16.8916 140.547 16.1283 142.544 16.1283Z" fill="white"/>
<path d="M151.724 8.1134C149.51 8.1134 147.782 9.91266 147.782 12.0936C147.782 14.2745 149.564 16.0738 151.778 16.0738C153.938 16.0738 155.72 14.2745 155.72 12.0936C155.72 9.91266 153.938 8.1134 151.724 8.1134ZM151.724 8.76768C153.56 8.76768 155.072 10.2943 155.072 12.1481C155.072 14.0019 153.56 15.5285 151.724 15.5285C149.888 15.5285 148.376 14.0019 148.376 12.1481C148.376 10.2398 149.888 8.76768 151.724 8.76768ZM150.482 10.2943V14.0019H151.076V12.6388H151.886L152.75 14.0019H153.344L152.48 12.5843L152.75 12.5298C152.912 12.4752 153.074 12.3662 153.182 12.2571C153.29 12.1481 153.344 12.0391 153.398 11.8755C153.452 11.7664 153.452 11.6029 153.452 11.4938C153.452 11.3848 153.452 11.2212 153.398 11.1122C153.344 10.9486 153.29 10.8396 153.182 10.7305C153.074 10.6215 152.912 10.5124 152.75 10.4579C152.534 10.3488 152.264 10.2943 152.048 10.3488H150.482V10.2943ZM151.13 10.785H151.94C152.048 10.785 152.156 10.785 152.264 10.785C152.372 10.785 152.48 10.8396 152.534 10.8941C152.642 10.9486 152.696 11.0031 152.75 11.0576C152.804 11.1667 152.858 11.2757 152.858 11.3848C152.858 11.4938 152.858 11.6029 152.75 11.7119C152.696 11.821 152.642 11.8755 152.534 11.93L152.21 12.0391C152.102 12.0391 151.994 12.0936 151.886 12.0391H151.076L151.13 10.785Z" fill="white"/>
</g>
<defs>
<clipPath id="clip0_70_3">
<rect width="156" height="44" fill="white"/>
</clipPath>
</defs>
</svg>
